<?xml version="1.0" standalone="no"?>
<!DOCTYPE svg PUBLIC "-//W3C//DTD SVG 20010904//EN"
 "http://www.w3.org/TR/2001/REC-SVG-20010904/DTD/svg10.dtd">
<svg version="1.0" xmlns="http://www.w3.org/2000/svg"
 width="1280.000000pt" height="640.000000pt" viewBox="0 0 1280.000000 640.000000"
 preserveAspectRatio="xMidYMid meet">
<g transform="translate(0.000000,640.000000) scale(0.100000,-0.100000)"
fill="#000000" stroke="none">
<path d="M10920 4743 c-75 -29 -151 -121 -171 -211 -15 -62 18 -59 -308 -31
-256 22 -263 22 -1236 20 -726 -1 -857 -13 -1725 -146 -541 -83 -662 -110
-883 -191 -502 -186 -694 -357 -882 -790 -107 -244 -165 -448 -165 -578 0 -73
4 -68 -160 -193 -276 -211 -418 -284 -688 -353 -278 -71 -497 -95 -1187 -130
-423 -22 -636 -24 -900 -10 -531 28 -793 34 -986 22 -510 -31 -1015 -152
-1410 -336 -73 -34 -219 -139 -219 -157 0 -15 13 -11 201 51 352 117 449 133
1094 181 342 26 708 28 1220 9 366 -13 518 -11 1045 21 661 38 988 76 1337
155 258 58 357 94 612 224 l174 89 26 -18 c113 -81 313 -57 417 50 38 39 39
39 44 17 3 -14 22 -32 50 -46 39 -20 55 -23 125 -19 97 6 315 34 370 47 22 5
70 10 106 10 60 0 72 -4 119 -35 29 -19 56 -35 62 -35 11 0 2 49 -18 99 -8 19
-13 35 -12 37 7 6 126 -19 155 -32 18 -9 49 -34 68 -55 42 -46 58 -42 53 12
-4 43 5 48 40 23 20 -14 23 -14 28 1 9 22 -4 96 -22 123 -12 18 -12 23 -2 26
7 3 171 7 363 10 331 5 429 11 945 52 296 24 834 24 1010 0 486 -66 1029 -149
1190 -182 69 -14 147 -24 175 -22 l50 3 15 -72 c8 -39 18 -74 21 -78 11 -10
89 91 95 124 5 22 12 31 26 31 31 0 163 -47 239 -86 39 -19 74 -32 77 -29 10
10 -45 107 -84 148 -20 21 -35 40 -33 42 2 2 67 -10 144 -25 77 -16 146 -29
153 -30 40 -1 -23 73 -93 108 -22 11 -45 29 -52 41 -7 11 -34 32 -60 48 -40
23 -59 28 -113 27 -40 -1 -86 -9 -119 -22 l-54 -21 -86 32 c-89 34 -181 89
-231 139 -52 52 -58 128 -15 194 23 36 50 46 169 60 61 7 172 22 246 33 173
27 309 27 431 1 114 -24 195 -25 334 -4 59 8 112 13 119 11 17 -7 70 -170 100
-306 13 -58 29 -107 36 -109 14 -5 13 4 -30 183 -16 66 -38 145 -50 174 -11
30 -19 55 -18 56 2 2 47 5 101 7 l97 4 29 -76 c38 -99 67 -222 81 -345 14
-119 17 -132 30 -119 24 24 -40 350 -94 483 l-24 60 64 66 64 65 49 -74 c47
-72 107 -203 132 -286 7 -23 18 -40 27 -40 9 0 12 6 7 18 -4 9 -18 49 -32 87
-34 94 -87 197 -137 269 l-41 59 30 21 c138 97 161 186 69 273 l-44 42 43 12
c23 7 66 17 96 23 30 6 56 17 59 24 5 17 -9 15 -123 -14 -97 -24 -100 -25
-124 -6 -34 25 -36 37 -8 49 34 16 136 112 153 144 13 26 13 29 -1 29 -8 0
-15 -4 -15 -9 0 -4 -18 -29 -40 -53 -48 -56 -134 -113 -152 -102 -49 30 -264
219 -370 325 -119 120 -133 131 -230 178 -100 48 -275 111 -310 111 -22 0 -23
-2 7 62 58 125 8 248 -102 248 -53 0 -91 -18 -127 -60 -27 -33 -56 -115 -56
-162 0 -17 -4 -27 -10 -23 -5 3 -10 16 -10 27 0 35 -31 150 -51 190 -23 45
-79 92 -128 107 -39 11 -154 14 -181 4z"/>
</g>
</svg>
